<svg width="78" height="58" viewBox="0 0 78 58" fill="none" xmlns="http://www.w3.org/2000/svg">
<path d="M0.0134535 57V0.583998H36.7355V7.636C32.4355 4.024 27.5335 2.562 24.0075 1.96C23.9215 1.96 23.9215 1.96 23.9215 1.96C22.8035 1.702 21.6855 1.616 20.4815 1.53C20.2235 1.53 19.9655 1.53 19.7935 1.53H6.29145V10.302C6.29145 13.054 6.37745 16.752 6.37745 21.654V27.244H19.6215V28.19H6.37745V57H0.0134535ZM53.8152 0.583998L77.4652 57.086C76.0892 57 74.8852 57.086 74.3692 57.086C73.8532 57.086 72.5632 57 71.0152 57.086L64.8232 42.638L64.7372 42.466C64.2212 41.262 63.7052 39.886 63.1032 38.51L62.3292 36.79L62.7592 37.736C62.6732 37.478 62.5012 37.134 62.3292 36.79L61.2972 34.468L61.2112 34.296L60.1792 31.716H40.2272L30.1652 57C29.8212 57 29.4772 57 29.0472 57L34.4652 43.412V43.326C35.0672 42.122 35.4972 40.918 35.9272 39.8L45.3012 16.322L48.9992 7.206L51.5792 0.583998C51.6652 0.411996 51.7512 0.411996 52.1812 0.411996H52.9552C53.4712 0.411996 53.7292 0.411996 53.8152 0.583998ZM40.4852 31.028H59.8352L49.8592 7.55L47.9672 12.108L40.4852 31.028Z" fill="white"/>
</svg>
